PathFileType	4	(X/Y/Z)	C:/Users/opensim2020/Desktop/walking_exp_matlab/subject02_walking09_straight_02.trc																																																																																																																												
DataRate	CameraRate	NumFrames	NumMarkers	Units	OrigDataRate	OrigDataStartFrame	OrigNumFrames																																																																																																																								
100	100	4	42	mm	100	1323	436																																																																																																																								
Frame#	Time	LFHD			RFHD			LBHD			RBHD			C7			T10			CLAV			STRN			RBAK			LSHO			LUPA			LELB			LFRM			LWRA			LWRB			LFIN			RSHO			RUPA			RELB			RFRM			RWRA			RWRB			RFIN			LASI			RASI			LPSI			RPSI			LTHI			LKNE			LTIB			LANK			LHEE			LTOE			RTHI			RKNE			RTIB			RANK			RHEE			RTOE			*39			*40			*41		
		X1	Y1	Z1	X2	Y2	Z2	X3	Y3	Z3	X4	Y4	Z4	X5	Y5	Z5	X6	Y6	Z6	X7	Y7	Z7	X8	Y8	Z8	X9	Y9	Z9	X10	Y10	Z10	X11	Y11	Z11	X12	Y12	Z12	X13	Y13	Z13	X14	Y14	Z14	X15	Y15	Z15	X16	Y16	Z16	X17	Y17	Z17	X18	Y18	Z18	X19	Y19	Z19	X20	Y20	Z20	X21	Y21	Z21	X22	Y22	Z22	X23	Y23	Z23	X24	Y24	Z24	X25	Y25	Z25	X26	Y26	Z26	X27	Y27	Z27	X28	Y28	Z28	X29	Y29	Z29	X30	Y30	Z30	X31	Y31	Z31	X32	Y32	Z32	X33	Y33	Z33	X34	Y34	Z34	X35	Y35	Z35	X36	Y36	Z36	X37	Y37	Z37	X38	Y38	Z38	X39	Y39	Z39	X40	Y40	Z40	X41	Y41	Z41	X42	Y42	Z42
																																																																																																																															
110	1.09	-1362.23792	1745.74585	-1391.82227	-1361.5658	1722.77991	-1250.43237	-1490.56519	1667.46875	-1402.01526	-1502.47498	1643.25989	-1262.17822	-1545.58093	1533.40784	-1326.08032	-1616.50378	1262.40405	-1311.49866	-1414.13806	1454.64075	-1353.67224	-1374.86218	1279.0011	-1354.5575	-1606.79041	1362.74805	-1254.70264	-1496.11108	1505.89868	-1511.31189	-1493.6864	1321.13757	-1619.41125	-1463.69177	1189.573	-1661.52075	-1413.06885	1071.48828	-1695.49377	-1319.46069	968.6275	-1684.39014	-1364.20679	960.72192	-1717.43787	-1323.65564	910.65802	-1732.98157	-1446.41467	1490.05847	-1150.23303	-1479.8606	1298.84863	-1067.71277	-1476.54126	1151.53308	-1056.15466	-1445.77393	1034.07959	-1041.29419	-1393.76477	910.03986	-1064.48425	-1441.50403	903.76062	-1032.41113	-1401.57776	842.62616	-1032.49182	-1428.04517	985.3335	-1479.09204	-1380.54089	980.22955	-1227.16943	-1617.08301	1041.67834	-1361.7771	-1602.44934	1039.17395	-1247.94458	-1552.09583	683.61407	-1498.19922	-1610.74585	488.96661	-1450.87854	-1689.92188	311.34637	-1424.92603	-1700.50781	86.93638	-1385.7356	-1716.89795	60.81248	-1325.06128	-1564.50903	41.31352	-1459.44519	-1375.77441	688.96796	-1141.79016	-1313.49219	491.65216	-1180.64514	-1334.45618	305.31192	-1168.26611	-1336.02087	111.86805	-1197.07605	-1365.33301	52.62743	-1251.67627	-1181.45374	70.40656	-1195.2489	-1465.31287	1804.65063	-1298.99341	-2845.19995	1034.14087	3360.29688	NaN	NaN	NaN
111	1.1	-1354.62256	1744.98694	-1392.62439	-1354.60693	1721.77234	-1251.23718	-1482.99121	1666.76111	-1403.47766	-1495.40381	1642.35168	-1263.57898	-1538.38696	1532.66724	-1328.07336	-1609.6698	1261.8551	-1313.76306	-1406.85254	1453.82825	-1354.84058	-1367.84863	1278.13452	-1355.44983	-1600.27942	1362.19849	-1257.30811	-1487.54211	1505.27026	-1512.99744	-1484.00732	1321.07568	-1621.54993	-1452.88806	1190.08984	-1664.53577	-1400.20447	1072.57495	-1698.37537	-1304.51062	971.54565	-1687.81641	-1349.51111	962.87878	-1720.63354	-1308.11365	913.55914	-1736.45386	-1440.5365	1489.29004	-1151.76221	-1474.56909	1298.15967	-1069.24585	-1472.09155	1150.99719	-1057.56775	-1441.88123	1033.2666	-1042.45691	-1391.92029	908.99835	-1065.31848	-1438.23181	903.09308	-1033.15186	-1398.56604	841.63635	-1032.90112	-1421.31848	984.47528	-1480.15161	-1373.76416	979.9447	-1228.30994	-1610.23145	1040.93066	-1363.14099	-1595.68652	1038.63391	-1249.27039	-1547.4585	683.14813	-1498.77002	-1607.42493	488.90192	-1451.16797	-1688.10217	312.0654	-1425.19141	-1700.35706	87.72215	-1385.97827	-1716.41187	61.5942	-1324.76697	-1564.48682	41.26409	-1459.49622	-1370.17175	688.07111	-1142.65405	-1307.81018	490.5394	-1183.36353	-1320.48047	303.45636	-1171.78174	-1314.08679	110.16163	-1201.60986	-1341.28931	50.36904	-1256.38	-1157.7124	73.86154	-1200.73438	-1458.13831	1803.87549	-1300.22961	-2845.16992	1033.85815	3360.40942	NaN	NaN	NaN
112	1.11	-1347.10608	1744.22095	-1393.49927	-1347.64453	1720.89392	-1251.98804	-1475.35815	1666.03418	-1404.86475	-1488.34778	1641.51575	-1265.01221	-1531.14087	1531.92737	-1329.96765	-1602.72363	1261.1427	-1315.78845	-1399.59509	1452.75366	-1355.53711	-1360.66992	1277.17822	-1356.27527	-1593.56812	1361.46558	-1259.54504	-1478.97913	1504.56775	-1514.57751	-1474.46045	1320.89124	-1623.57532	-1442.14673	1190.17957	-1666.89258	-1387.71423	1073.73486	-1701.3186	-1290.11401	974.38861	-1691.03662	-1335.21313	964.77856	-1723.46411	-1293.00439	916.25122	-1739.56592	-1434.43665	1488.36316	-1153.02405	-1469.26965	1297.69739	-1071.00806	-1467.4519	1150.37842	-1058.79163	-1437.48853	1032.68738	-1043.47083	-1388.26538	907.89008	-1065.703	-1434.85608	902.30548	-1033.76819	-1395.49133	840.66663	-1033.13428	-1414.41541	983.50781	-1481.28613	-1366.68091	979.74872	-1229.49231	-1603.20764	1040.15344	-1364.2439	-1588.69031	1037.98169	-1250.40601	-1542.4519	682.36163	-1499.00232	-1603.9856	489.02417	-1451.65234	-1686.1012	312.83951	-1425.49133	-1700.18018	88.69717	-1386.25024	-1716.65222	62.66006	-1325.42297	-1564.46875	41.17479	-1459.54797	-1364.63635	686.97815	-1143.77771	-1302.10571	489.40039	-1186.10229	-1306.97803	301.95685	-1175.12134	-1292.59985	108.98305	-1205.98657	-1317.76245	48.98718	-1261.026	-1134.86072	78.01235	-1205.92358	-1450.90283	1803.06299	-1301.453	-2845.18481	1034.00684	3360.24487	NaN	NaN	NaN
113	1.12	-1339.43909	1743.36389	-1394.1283	-1340.50732	1719.65369	-1252.40002	-1467.69287	1665.2146	-1406.13171	-1481.25586	1640.54639	-1266.29517	-1523.85254	1531.08813	-1331.78027	-1595.56689	1260.36768	-1317.53662	-1392.15881	1451.91089	-1356.53259	-1353.41272	1276.05566	-1356.80225	-1586.79492	1360.68201	-1261.60217	-1470.52222	1503.81982	-1515.97131	-1465.01257	1320.56641	-1625.50269	-1431.60852	1190.24194	-1669.20251	-1375.39514	1074.53931	-1703.69482	-1276.00378	977.03558	-1693.96289	-1321.31274	966.52875	-1725.93286	-1278.30212	918.77789	-1742.36597	-1428.22205	1487.38232	-1154.22949	-1464.48792	1296.79443	-1071.86121	-1462.5177	1149.54602	-1060.23425	-1433.52905	1031.68787	-1044.19019	-1384.33594	906.34387	-1066.23779	-1431.24048	901.48303	-1034.33911	-1392.25842	839.60162	-1033.33936	-1407.5647	982.62329	-1482.49597	-1359.31506	979.34393	-1230.75244	-1596.08997	1039.21838	-1365.0802	-1581.4696	1037.31018	-1251.2998	-1537.71985	682.28381	-1500.01025	-1600.31201	489.13129	-1452.08301	-1684.00623	313.66653	-1425.75073	-1699.93542	89.5493	-1386.50208	-1716.34448	63.80446	-1325.31641	-1564.48413	41.11926	-1459.64111	-1359.15771	685.65125	-1144.76428	-1296.49561	488.27252	-1188.53235	-1294.01978	300.73932	-1178.3092	-1271.302	108.72124	-1210.17603	-1295.02112	48.16995	-1265.49683	-1112.78052	82.32498	-1210.69727	-1443.59192	1802.08301	-1302.26343	-2845.05859	1034.19763	3360.17236	NaN	NaN	NaN
